<svg xmlns="http://www.w3.org/2000/svg" viewBox="0 0 688.43 674.16">
  <defs>
    <style>
      .cls-1 {
        fill: #61dbfb;
      }

      .cls-2 {
        fill: #ed8447;
      }
    </style>
  </defs>
  <g id="Layer_2" data-name="Layer 2">
    <g id="Layer_1-2" data-name="Layer 1">
      <g>
        <g>
          <path class="cls-1" d="M273.82,507c-64.75-53.22-123.17-115.11-171.44-184.72C78.2,287.56,55.73,251.44,37,212.87a467.73,467.73,0,0,1-24.64-60C5.77,131.89.33,110.11,0,86.19-.06,74.26,1.27,61.62,5.87,48.82A70.71,70.71,0,0,1,31.44,14.76C43.59,6,57.77,2.22,70.72.88,83.84-.48,96.15.67,107.91,2.63c23.59,4,44.85,11.91,65.38,20.72a541.8,541.8,0,0,1,58.5,30.7c37.44,22.53,72.47,48.1,105.78,75.55A1241,1241,0,0,1,432.83,217a35.9,35.9,0,0,1-51.09,50.45c-.59-.59-1.14-1.2-1.68-1.82l-.09-.11A1178.37,1178.37,0,0,0,296,176.68c-29.47-28.06-60.6-54.32-93.46-77.44A492.15,492.15,0,0,0,151.89,67.8c-17.32-9-35.22-17-52.8-21.2-17.49-4.51-34.82-4.66-45.2,1.7a31,31,0,0,0-12.6,14.61c-3,6.74-4.85,15.15-5.42,24.12-1.14,18.09,2,37.84,6.63,57.18a439.59,439.59,0,0,0,19,57.74C76.81,240,96.16,276.82,117.43,312.5,159.79,384,213,449.24,273.82,507Z"/>
          <path class="cls-1" d="M414.6,167.41C479.35,220.64,537.77,282.53,586,352.14c24.18,34.69,46.66,70.82,65.43,109.39a470.48,470.48,0,0,1,24.64,60c6.55,20.94,12,42.72,12.31,66.64.06,11.94-1.26,24.57-5.86,37.37A70.73,70.73,0,0,1,657,659.63c-12.16,8.75-26.34,12.55-39.29,13.89-13.12,1.36-25.43.2-37.18-1.76-23.59-4-44.85-11.91-65.38-20.72a542.89,542.89,0,0,1-58.51-30.7c-37.43-22.53-72.47-48.1-105.77-75.55a1242.91,1242.91,0,0,1-95.26-87.38A35.9,35.9,0,0,1,306.69,407c.58.59,1.14,1.19,1.67,1.81l.1.12a1176.1,1176.1,0,0,0,83.93,88.82c29.47,28.06,60.6,54.32,93.46,77.44a493.85,493.85,0,0,0,50.68,31.45c17.32,9,35.23,17,52.8,21.19,17.49,4.51,34.83,4.66,45.2-1.7a31,31,0,0,0,12.61-14.6c3.05-6.74,4.84-15.16,5.42-24.13,1.14-18.09-2-37.83-6.63-57.18a442,442,0,0,0-19-57.73C611.62,434.39,592.26,397.57,571,361.9,528.64,290.42,475.42,225.15,414.6,167.41Z"/>
        </g>
        <g>
          <path class="cls-2" d="M512,412.19C457,475.42,393.5,532.09,322.57,578.4c-35.35,23.2-72.09,44.65-111.17,62.34a469.94,469.94,0,0,1-60.7,23c-21.12,6-43,10.79-67,10.45-11.93-.27-24.53-1.95-37.19-6.91a70.69,70.69,0,0,1-33.33-26.51C4.81,628.33,1.41,614.05.43,601.06c-1-13.15.51-25.43,2.8-37.12,4.63-23.47,13.16-44.5,22.53-64.78a542.52,542.52,0,0,1,32.33-57.62c23.57-36.79,50.11-71.1,78.47-103.62a1243.57,1243.57,0,0,1,90-92.78,35.9,35.9,0,1,1,49,52.48q-.91.86-1.86,1.62l-.12.1a1175.27,1175.27,0,0,0-91.13,81.41c-28.87,28.67-56,59.06-80,91.26A493,493,0,0,0,69.6,521.79C60.13,538.85,51.65,556.53,46.94,574c-5,17.36-5.64,34.68.43,45.23a30.9,30.9,0,0,0,14.25,13c6.65,3.24,15,5.27,24,6.09,18,1.65,37.88-.95,57.34-5a440.75,440.75,0,0,0,58.25-17.43c38.47-14.19,75.81-32.51,112.07-52.77C385.87,522.74,452.6,471.37,512,412.19Z"/>
          <path class="cls-2" d="M176.52,262C231.53,198.73,295,142.07,366,95.76c35.35-23.2,72.09-44.66,111.17-62.34a470,470,0,0,1,60.7-23c21.12-6,43-10.78,67-10.44C616.72.29,629.32,2,642,6.93a70.68,70.68,0,0,1,33.34,26.5c8.4,12.4,11.8,26.68,12.78,39.67,1,13.15-.51,25.42-2.8,37.12-4.63,23.47-13.15,44.5-22.53,64.77a545.36,545.36,0,0,1-32.32,57.63c-23.58,36.79-50.12,71.09-78.48,103.62A1243.57,1243.57,0,0,1,462,429a35.9,35.9,0,0,1-49-52.48c.61-.57,1.23-1.11,1.86-1.63l.12-.09a1177.33,1177.33,0,0,0,91.13-81.41c28.87-28.67,56-59.06,80-91.26a492,492,0,0,0,32.84-49.79c9.47-17.06,18-34.74,22.66-52.18,5-17.36,5.64-34.69-.43-45.24a30.93,30.93,0,0,0-14.25-13c-6.65-3.24-15-5.27-24-6.09-18.05-1.65-37.88.94-57.34,5A440.7,440.7,0,0,0,487.36,58.3c-38.47,14.19-75.81,32.51-112.07,52.78C302.66,151.42,235.93,202.79,176.52,262Z"/>
        </g>
        <path class="cls-1" d="M432.49,267.75a35.86,35.86,0,0,1-50.74-.33,20.16,20.16,0,0,1-1.69-1.78l-.09-.14a1180.19,1180.19,0,0,0-84-88.82c-3.14-3-6.27-5.94-9.45-8.84-2.53-2.38-5.1-4.72-7.67-7.06q-8.36-7.65-17-15l48.64-37.65q8.91,6.8,17.59,13.84c3.13,2.53,6.26,5.05,9.4,7.62.89.71,1.77,1.45,2.62,2.16A1230.19,1230.19,0,0,1,432.82,217,35.85,35.85,0,0,1,432.49,267.75Z"/>
      </g>
    </g>
  </g>
</svg>
